<svg id="Layer" xmlns="http://www.w3.org/2000/svg" xmlns:xlink="http://www.w3.org/1999/xlink" viewBox="0 0 309.12 202.83"><defs><style>.cls-1,.cls-4{opacity:0.25;}.cls-2,.cls-3,.cls-4{fill:#f29277;}.cls-13,.cls-2,.cls-24{fill-rule:evenodd;}.cls-5{fill:#fff;}.cls-6{fill:#999ea3;}.cls-7{fill:#343434;opacity:0.1;}.cls-8{fill:#fad69d;}.cls-9{fill:#e9ecf8;}.cls-10{fill:#cbced8;}.cls-11,.cls-24{fill:#ffce44;}.cls-12{fill:#4b2583;}.cls-13,.cls-17{fill:#4baf63;}.cls-14{fill:#da775e;}.cls-15{fill:url(#Névtelen_színátmenet_12);}.cls-16,.cls-21{fill:#1d1b37;}.cls-18{fill:#6b4997;}.cls-19{fill:#e0e3ef;}.cls-19,.cls-21{opacity:0.2;}.cls-20,.cls-25{fill:#0d090f;}.cls-20{opacity:0.5;}.cls-22,.cls-25{opacity:0.3;}.cls-23{fill:#fefdfc;}</style><linearGradient id="Névtelen_színátmenet_12" x1="290.62" y1="65.69" x2="293.2" y2="65.69" gradientTransform="matrix(-0.99, -0.13, -0.13, 0.99, 461.97, 26.14)" gradientUnits="userSpaceOnUse"><stop offset="0" stop-color="#fbd3bd"/><stop offset="0.01" stop-color="#fad2bc"/><stop offset="0.21" stop-color="#efc2ad"/><stop offset="0.43" stop-color="#e9b8a5"/><stop offset="0.72" stop-color="#e7b5a2"/></linearGradient></defs><title>eezy_22</title><g class="cls-1"><path class="cls-2" d="M271.1,51.17H217.52v73.26H271.1Zm-4.87,68.39H222.4V56.05h43.83Z" transform="translate(-13.43 -21.1)"/><rect class="cls-3" x="209.8" y="35.84" width="42.3" height="2.66"/><ellipse class="cls-3" cx="230.95" cy="40.58" rx="36.41" ry="1.63"/><ellipse class="cls-3" cx="230.95" cy="43.98" rx="36.41" ry="1.63"/><path class="cls-2" d="M223.23,69.81h42.3V67.15h-42.3Z" transform="translate(-13.43 -21.1)"/><rect class="cls-3" x="209.8" y="49.46" width="42.3" height="2.65"/><rect class="cls-3" x="209.8" y="52.84" width="42.3" height="2.66"/><ellipse class="cls-3" cx="230.95" cy="57.57" rx="36.4" ry="1.63"/><ellipse class="cls-3" cx="230.95" cy="60.98" rx="36.41" ry="1.63"/><path class="cls-2" d="M223.23,86.81h42.3V84.15h-42.3Z" transform="translate(-13.43 -21.1)"/><rect class="cls-3" x="209.8" y="66.46" width="42.3" height="2.65"/><rect class="cls-3" x="209.8" y="69.96" width="42.3" height="2.65"/><rect class="cls-3" x="209.8" y="73.34" width="42.3" height="2.66"/><ellipse class="cls-3" cx="230.95" cy="78.07" rx="36.4" ry="1.63"/><ellipse class="cls-3" cx="230.95" cy="81.48" rx="36.41" ry="1.63"/><path class="cls-2" d="M223.23,107.31h42.3v-2.66h-42.3Z" transform="translate(-13.43 -21.1)"/><rect class="cls-3" x="209.8" y="86.96" width="42.3" height="2.65"/></g><g class="cls-1"><path class="cls-2" d="M214.32,51.17H160.74v73.26h53.58Zm-4.88,68.39H165.61V56.05h43.83Z" transform="translate(-13.43 -21.1)"/><rect class="cls-3" x="153.01" y="35.84" width="42.3" height="2.66"/><ellipse class="cls-3" cx="174.16" cy="40.58" rx="36.41" ry="1.63"/><ellipse class="cls-3" cx="174.16" cy="43.98" rx="36.41" ry="1.63"/><path class="cls-2" d="M166.44,69.81h42.3V67.15h-42.3Z" transform="translate(-13.43 -21.1)"/><rect class="cls-3" x="153.01" y="49.46" width="42.3" height="2.65"/><rect class="cls-3" x="153.01" y="52.84" width="42.3" height="2.66"/><ellipse class="cls-3" cx="174.16" cy="57.57" rx="36.4" ry="1.63"/><ellipse class="cls-3" cx="174.16" cy="60.98" rx="36.41" ry="1.63"/><path class="cls-2" d="M166.44,86.81h42.3V84.15h-42.3Z" transform="translate(-13.43 -21.1)"/><rect class="cls-3" x="153.01" y="66.46" width="42.3" height="2.65"/><rect class="cls-3" x="153.01" y="69.96" width="42.3" height="2.65"/><rect class="cls-3" x="153.01" y="73.34" width="42.3" height="2.66"/><ellipse class="cls-3" cx="174.16" cy="78.07" rx="36.4" ry="1.63"/><ellipse class="cls-3" cx="174.16" cy="81.48" rx="36.41" ry="1.63"/><path class="cls-2" d="M166.44,107.31h42.3v-2.66h-42.3Z" transform="translate(-13.43 -21.1)"/><rect class="cls-3" x="153.01" y="86.96" width="42.3" height="2.65"/></g><ellipse class="cls-4" cx="154.56" cy="96.71" rx="154.56" ry="90.9"/><path class="cls-4" d="M24.44,108.29v12l35-.15V108.44Zm33.93,10.93H25.47v-9.9h32.9Z" transform="translate(-13.43 -21.1)"/><path class="cls-5" d="M189.06,136.82c-6.26-22.45-16.49-51.56-16.49-51.56h0v0A10.86,10.86,0,0,0,162,76.65H140a10.87,10.87,0,0,0-10.49,8.61S119.27,114.37,113,136.82s10.43,23.45,10.43,23.45h55.19S195.31,159.28,189.06,136.82Z" transform="translate(-13.43 -21.1)"/><polygon class="cls-6" points="154.06 139.17 150.99 139.17 137.7 149.08 124.4 139.17 121.33 139.17 136.16 150.22 110.01 169.7 111.1 171.17 137.7 151.36 164.29 171.17 165.39 169.7 139.23 150.22 154.06 139.17"/><path class="cls-7" d="M189.06,136.82c-6.26-22.45-16.49-51.56-16.49-51.56h0v0A10.86,10.86,0,0,0,162,76.65h-5a10.87,10.87,0,0,1,10.49,8.58v0h0s10.23,29.11,16.48,51.56-10.42,23.45-10.42,23.45h5S195.31,159.28,189.06,136.82Z" transform="translate(-13.43 -21.1)"/><polygon class="cls-8" points="157.43 139.17 169.54 202.83 173.97 202.83 161.26 139.17 157.43 139.17"/><polygon class="cls-8" points="114.28 139.17 101.56 202.83 105.99 202.83 118.11 139.17 114.28 139.17"/><rect class="cls-5" x="71.91" y="40.48" width="37.85" height="57.61"/><rect class="cls-9" x="76.14" y="47.33" width="29.38" height="1.31"/><rect class="cls-10" x="76.14" y="44.72" width="14.69" height="1.31"/><rect class="cls-9" x="76.14" y="87.09" width="29.38" height="1.31"/><rect class="cls-9" x="76.14" y="84.58" width="29.38" height="1.31"/><rect class="cls-9" x="76.14" y="82.07" width="29.38" height="1.31"/><rect class="cls-9" x="76.14" y="79.56" width="29.38" height="1.31"/><rect class="cls-9" x="76.14" y="89.7" width="29.38" height="1.31"/><rect class="cls-9" x="76.14" y="92.32" width="14.69" height="1.3"/><path class="cls-11" d="M111.12,85.69a6.82,6.82,0,0,1-2,4.84L112.58,94A11.71,11.71,0,0,0,116,85.69Z" transform="translate(-13.43 -21.1)"/><path class="cls-3" d="M109.11,90.54a6.86,6.86,0,1,1-4.84-11.71v-4.9A11.76,11.76,0,1,0,112.58,94Z" transform="translate(-13.43 -21.1)"/><path class="cls-12" d="M104.27,78.83a6.85,6.85,0,0,1,6.85,6.86H116a11.75,11.75,0,0,0-11.75-11.76v4.9Z" transform="translate(-13.43 -21.1)"/><path class="cls-13" d="M175.05,77.38c-2.21-2.89-11.28-4.5-15.91-5.45a6.86,6.86,0,0,1-3.42-1.6v1.3a3.78,3.78,0,0,1-3.78,3.78h-5.62a3.78,3.78,0,0,1-3.78-3.78v-1.3a6.94,6.94,0,0,1-3.43,1.6c-3.28.68-8.8,1.68-12.51,3.25a9.46,9.46,0,0,0-3.27,2.21,5.21,5.21,0,0,0-.45.52c-2.45,3.18-7.11,11-13.62,29.76,0,0-4.2,11.76,5.56,11.76h5.9v0h56.82S178.64,82.07,175.05,77.38Z" transform="translate(-13.43 -21.1)"/><path class="cls-6" d="M276.65,127.78v3.34a3.91,3.91,0,0,1-3.91,3.91h-9.39a3.91,3.91,0,0,1-3.9-3.91v-3.34Z" transform="translate(-13.43 -21.1)"/><path class="cls-6" d="M75.64,127.52v3.24a3.79,3.79,0,0,1-3.79,3.79H62.74A3.79,3.79,0,0,1,59,130.76v-3.24Z" transform="translate(-13.43 -21.1)"/><polygon class="cls-10" points="57.47 146.05 57.47 202.58 50.28 202.57 50.28 113.45 57.28 113.45 57.47 113.45 57.47 146.05"/><rect class="cls-10" x="251.05" y="114.02" width="7.19" height="88.56"/><path class="cls-14" d="M134.68,48.09a4,4,0,0,0-.43.19,3.81,3.81,0,0,0-1.11,5.26,4.3,4.3,0,0,0,2.56,2.07Z" transform="translate(-13.43 -21.1)"/><path class="cls-15" d="M163.11,48.09a3.43,3.43,0,0,1,.44.19,3.81,3.81,0,0,1,1.11,5.26,4.29,4.29,0,0,1-2.57,2.07Z" transform="translate(-13.43 -21.1)"/><rect class="cls-14" x="129.11" y="36.35" width="13.38" height="17.96" rx="3.78" ry="3.78"/><path class="cls-3" d="M134.56,50.05c0,9.22,6,18.84,14.52,18.84,8,0,14.21-9.62,14.21-18.84s-6.49-16.7-14.5-16.7S134.56,40.82,134.56,50.05Z" transform="translate(-13.43 -21.1)"/><g id="_Csoport_" data-name="&lt;Csoport&gt;"><path class="cls-14" d="M149.36,59.08a1.56,1.56,0,0,1-1.56-1.55V54.76a.2.2,0,0,1,.19-.19.19.19,0,0,1,.19.19v2.77a1.18,1.18,0,0,0,1.18,1.17.19.19,0,0,1,.19.19A.2.2,0,0,1,149.36,59.08Z" transform="translate(-13.43 -21.1)"/></g><path class="cls-16" d="M158.15,52a2.12,2.12,0,0,0-1.62-.79,1.89,1.89,0,0,0-1.77,1,.28.28,0,0,0,0,.22.31.31,0,0,0,.16.16.3.3,0,0,0,.39-.16,1.26,1.26,0,0,1,1.22-.66,1.5,1.5,0,0,1,1.17.58.86.86,0,0,0,1.29,0A1,1,0,0,1,158.15,52Z" transform="translate(-13.43 -21.1)"/><path class="cls-16" d="M139.66,52a2.15,2.15,0,0,1,1.63-.79,1.87,1.87,0,0,1,1.76,1,.29.29,0,0,1-.16.38.29.29,0,0,1-.38-.16,1.27,1.27,0,0,0-1.22-.66,1.53,1.53,0,0,0-1.18.58.86.86,0,0,1-1.29,0A1,1,0,0,0,139.66,52Z" transform="translate(-13.43 -21.1)"/><path class="cls-3" d="M167.89,116.38a12.32,12.32,0,0,0-8.27-3.29H140l.14,6.42h12.12s-.19,1.69,6.51,1.69c1.06,0,1.79.54,1.79,1.51,0,1.68.87,1.79,1.41,1.79s.8-.26.8-1.7a5.69,5.69,0,0,0-1.2-3.31h.51c.34.39.62.77.84,1.05a5.67,5.67,0,0,1,1,2.3c.09.74.4,1.75,1.15,1.78.54,0,1.28,0,1.28-1.57a4.7,4.7,0,0,0-.55-2.11c1.47,1.59,3,3.15,3.71,3.38a3.23,3.23,0,0,0,.79.15,1,1,0,0,0,.72-1.66l-1.28-1.29a16.19,16.19,0,0,0,2.8,2.33c1.21.53,1.68-.31,1.68-.31C175,122.4,171.16,119.62,167.89,116.38Z" transform="translate(-13.43 -21.1)"/><g id="laptop"><path class="cls-16" d="M246.75,71.16a2.38,2.38,0,0,0-1.73-.71H175.86a2.43,2.43,0,0,0-1.74.71,2.47,2.47,0,0,0-.71,1.74v42.73h74.05V72.9A2.43,2.43,0,0,0,246.75,71.16Z" transform="translate(-13.43 -21.1)"/><rect class="cls-5" x="163.83" y="53.11" width="66.34" height="41.42"/><path class="cls-6" d="M218.33,115.63H164.94V117c1.56,1.55,4.18,2.46,8.21,2.46h75.9c4,0,5.63-1.21,6.88-2.46v-1.41Z" transform="translate(-13.43 -21.1)"/></g><rect class="cls-8" x="170" y="63.53" width="54.64" height="22.34"/><circle class="cls-17" cx="197.19" cy="51.26" r="0.8"/><rect class="cls-5" x="187.41" y="68.77" width="19.95" height="11.97" rx="0.8" ry="0.8"/><rect class="cls-5" x="208.72" y="68.77" width="13.09" height="11.97" rx="0.8" ry="0.8"/><rect class="cls-18" x="172.84" y="68.77" width="13.09" height="11.97" rx="0.8" ry="0.8"/><path class="cls-12" d="M216.84,92.82H204.17a.71.71,0,0,0-.71.7v4.53a.71.71,0,0,0,.71.71h12.67a.7.7,0,0,0,.7-.71V93.52A.7.7,0,0,0,216.84,92.82Z" transform="translate(-13.43 -21.1)"/><path class="cls-19" d="M216.84,92.82H204.17a.71.71,0,0,0-.71.7v2.4h14.08v-2.4A.7.7,0,0,0,216.84,92.82Z" transform="translate(-13.43 -21.1)"/><path class="cls-5" d="M208.86,95.09a.55.55,0,0,1-.43.55.59.59,0,0,1,.52.62c0,.42-.34.68-.91.68h-1.13V94.47H208C208.54,94.47,208.86,94.71,208.86,95.09Zm-.48.09c0-.19-.15-.3-.39-.3h-.6v.6h.6C208.23,95.48,208.38,95.37,208.38,95.18Zm.09,1c0-.2-.19-.32-.48-.32h-.6v.65h.6C208.28,96.54,208.47,96.41,208.47,96.2Z" transform="translate(-13.43 -21.1)"/><path class="cls-5" d="M210.53,96.54a.57.57,0,0,0,.61-.63V94.47h.47v1.44a1.09,1.09,0,0,1-2.17,0V94.47h.47v1.44A.59.59,0,0,0,210.53,96.54Z" transform="translate(-13.43 -21.1)"/><path class="cls-5" d="M213.33,96.13v.81h-.48v-.79l-.92-1.68h.48l.68,1.16.66-1.16h.48Z" transform="translate(-13.43 -21.1)"/><path class="cls-3" d="M184.46,221.29a18.86,18.86,0,0,0-1.67-6.34,19.59,19.59,0,0,1-1.48-7.44v-.74H169.78v.74A19.4,19.4,0,0,1,168.3,215a19.1,19.1,0,0,0-1.67,6.34l8.92,0Z" transform="translate(-13.43 -21.1)"/><path class="cls-16" d="M178.49,217.72l-5.9,0c-3.57,0-6.49,2.09-6.5,6.13l18.85.07C185,219.64,182.05,217.73,178.49,217.72Z" transform="translate(-13.43 -21.1)"/><path class="cls-3" d="M223,181.76a18.73,18.73,0,0,0-5.4-3.71,19.63,19.63,0,0,1-6-4.69l-.48-.55-4.29,3.69-.15.13-4.3,3.69.48.56a19.54,19.54,0,0,1,3.74,6.61,18.8,18.8,0,0,0,2.86,5.89l6.74-5.83Z" transform="translate(-13.43 -21.1)"/><path class="cls-16" d="M216.13,183l-4.48,3.83c-2.71,2.32-3.56,5.82-.93,8.89l14.33-12.25C222.29,180.19,218.84,180.64,216.13,183Z" transform="translate(-13.43 -21.1)"/><polygon class="cls-11" points="270.76 106.88 37.79 106.88 34.08 98.41 274.47 98.41 270.76 106.88"/><path class="cls-16" d="M150,127.88,169,124s8.7-2.62,15.55,7.26c7.22,10.41,29.3,39.14,29.3,39.14l-14.18,12.1-15.81-21.16v45.39H168.31l-3.8-51.27H134.78S121,155.85,121,144.79V127.88Z" transform="translate(-13.43 -21.1)"/><polygon class="cls-20" points="170.44 140.28 158.14 124.89 126.67 134.41 151.08 134.41 170.44 159.16 170.44 140.28"/><path class="cls-14" d="M175.65,206.77h-5.87v.74a19.62,19.62,0,0,1-.55,4.52h12.64a19.09,19.09,0,0,1-.56-4.52v-.74Z" transform="translate(-13.43 -21.1)"/><path class="cls-14" d="M206.81,176.48l-.16.13-4.3,3.68.48.56a20.05,20.05,0,0,1,2.52,3.8l9.6-8.21a20,20,0,0,1-3.36-3.08l-.48-.56Z" transform="translate(-13.43 -21.1)"/><path class="cls-10" d="M217.4,92.87v26a.64.64,0,0,0,.64.64h60.33a.65.65,0,0,0,.65-.64v-26Z" transform="translate(-13.43 -21.1)"/><rect class="cls-5" x="206.6" y="75.12" width="3.38" height="1.81" rx="0.19" ry="0.19"/><rect class="cls-5" x="210.7" y="75.12" width="3.38" height="1.81" rx="0.19" ry="0.19"/><rect class="cls-5" x="214.79" y="75.12" width="3.38" height="1.81" rx="0.19" ry="0.19"/><rect class="cls-5" x="218.89" y="75.12" width="3.38" height="1.81" rx="0.19" ry="0.19"/><rect class="cls-5" x="222.98" y="75.12" width="3.38" height="1.81" rx="0.19" ry="0.19"/><rect class="cls-5" x="227.08" y="75.12" width="3.38" height="1.81" rx="0.19" ry="0.19"/><rect class="cls-5" x="231.18" y="75.12" width="3.38" height="1.81" rx="0.19" ry="0.19"/><rect class="cls-5" x="235.27" y="75.12" width="3.38" height="1.81" rx="0.19" ry="0.19"/><rect class="cls-5" x="239.37" y="75.12" width="3.38" height="1.81" rx="0.19" ry="0.19"/><rect class="cls-5" x="243.47" y="75.12" width="3.38" height="1.81" rx="0.19" ry="0.19"/><rect class="cls-5" x="247.56" y="75.12" width="3.38" height="1.81" rx="0.19" ry="0.19"/><rect class="cls-5" x="251.66" y="75.12" width="3.38" height="1.81" rx="0.19" ry="0.19"/><rect class="cls-5" x="255.76" y="75.12" width="3.38" height="1.81" rx="0.19" ry="0.19"/><rect class="cls-5" x="259.85" y="75.12" width="3.38" height="1.81" rx="0.19" ry="0.19"/><rect class="cls-5" x="206.6" y="77.74" width="3.19" height="3.09" rx="0.19" ry="0.19"/><rect class="cls-5" x="210.56" y="77.74" width="3.19" height="3.09" rx="0.19" ry="0.19"/><rect class="cls-5" x="214.52" y="77.74" width="3.19" height="3.09" rx="0.19" ry="0.19"/><rect class="cls-5" x="218.48" y="77.74" width="3.19" height="3.09" rx="0.19" ry="0.19"/><rect class="cls-5" x="222.44" y="77.74" width="3.19" height="3.09" rx="0.19" ry="0.19"/><rect class="cls-5" x="226.4" y="77.74" width="3.19" height="3.09" rx="0.19" ry="0.19"/><rect class="cls-5" x="230.37" y="77.74" width="3.19" height="3.09" rx="0.19" ry="0.19"/><rect class="cls-5" x="234.33" y="77.74" width="3.19" height="3.09" rx="0.19" ry="0.19"/><rect class="cls-5" x="238.29" y="77.74" width="3.19" height="3.09" rx="0.19" ry="0.19"/><rect class="cls-5" x="242.25" y="77.74" width="3.19" height="3.09" rx="0.19" ry="0.19"/><rect class="cls-5" x="246.21" y="77.74" width="3.19" height="3.09" rx="0.19" ry="0.19"/><rect class="cls-5" x="250.17" y="77.74" width="3.19" height="3.09" rx="0.19" ry="0.19"/><rect class="cls-5" x="254.13" y="77.74" width="3.19" height="3.09" rx="0.19" ry="0.19"/><rect class="cls-5" x="258.09" y="77.74" width="5.14" height="3.09" rx="0.19" ry="0.19"/><rect class="cls-5" x="206.6" y="81.53" width="5.26" height="3.09" rx="0.19" ry="0.19"/><rect class="cls-5" x="212.55" y="81.53" width="3.19" height="3.09" rx="0.19" ry="0.19"/><rect class="cls-5" x="216.51" y="81.53" width="3.19" height="3.09" rx="0.19" ry="0.19"/><rect class="cls-5" x="220.46" y="81.53" width="3.19" height="3.09" rx="0.19" ry="0.19"/><rect class="cls-5" x="224.42" y="81.53" width="3.19" height="3.09" rx="0.19" ry="0.19"/><rect class="cls-5" x="228.37" y="81.53" width="3.19" height="3.09" rx="0.19" ry="0.19"/><rect class="cls-5" x="232.32" y="81.53" width="3.19" height="3.09" rx="0.19" ry="0.19"/><rect class="cls-5" x="236.28" y="81.53" width="3.19" height="3.09" rx="0.19" ry="0.19"/><rect class="cls-5" x="240.23" y="81.53" width="3.19" height="3.09" rx="0.19" ry="0.19"/><rect class="cls-5" x="244.19" y="81.53" width="3.19" height="3.09" rx="0.19" ry="0.19"/><rect class="cls-5" x="252.09" y="81.53" width="3.19" height="3.09" rx="0.19" ry="0.19"/><rect class="cls-5" x="248.14" y="81.53" width="3.18" height="3.09" rx="0.19" ry="0.19"/><rect class="cls-5" x="256.05" y="81.53" width="3.19" height="3.09" rx="0.19" ry="0.19"/><rect class="cls-5" x="206.6" y="85.46" width="6.22" height="3.09" rx="0.19" ry="0.19"/><rect class="cls-5" x="213.66" y="85.46" width="3.19" height="3.09" rx="0.19" ry="0.19"/><rect class="cls-5" x="217.6" y="85.46" width="3.19" height="3.09" rx="0.19" ry="0.19"/><rect class="cls-5" x="221.54" y="85.46" width="3.19" height="3.09" rx="0.19" ry="0.19"/><rect class="cls-5" x="225.49" y="85.46" width="3.19" height="3.09" rx="0.19" ry="0.19"/><rect class="cls-5" x="229.43" y="85.46" width="3.19" height="3.09" rx="0.19" ry="0.19"/><rect class="cls-5" x="233.37" y="85.46" width="3.19" height="3.09" rx="0.19" ry="0.19"/><rect class="cls-5" x="237.31" y="85.46" width="3.19" height="3.09" rx="0.19" ry="0.19"/><rect class="cls-5" x="241.25" y="85.46" width="3.19" height="3.09" rx="0.19" ry="0.19"/><rect class="cls-5" x="245.19" y="85.46" width="3.19" height="3.09" rx="0.19" ry="0.19"/><rect class="cls-5" x="249.13" y="85.46" width="3.19" height="3.09" rx="0.19" ry="0.19"/><rect class="cls-5" x="253.07" y="85.46" width="3.19" height="3.09" rx="0.19" ry="0.19"/><rect class="cls-5" x="257.01" y="85.46" width="3.19" height="3.09" rx="0.19" ry="0.19"/><path class="cls-5" d="M274.7,109.65a.18.18,0,0,1-.19-.19v-3.29a.45.45,0,0,0-.45-.45h-.42a.19.19,0,0,1-.19-.2v-2.7a.19.19,0,0,1,.19-.2h2.83a.19.19,0,0,1,.19.2v6.64a.18.18,0,0,1-.19.19Z" transform="translate(-13.43 -21.1)"/><rect class="cls-5" x="206.6" y="89.4" width="4.05" height="3.09" rx="0.19" ry="0.19"/><rect class="cls-5" x="211.59" y="89.4" width="3.19" height="3.09" rx="0.19" ry="0.19"/><rect class="cls-5" x="215.54" y="89.4" width="3.19" height="3.09" rx="0.19" ry="0.19"/><rect class="cls-5" x="219.5" y="89.4" width="3.19" height="3.09" rx="0.19" ry="0.19"/><rect class="cls-5" x="223.45" y="89.4" width="3.19" height="3.09" rx="0.19" ry="0.19"/><rect class="cls-5" x="227.4" y="89.4" width="3.19" height="3.09" rx="0.19" ry="0.19"/><rect class="cls-5" x="231.35" y="89.4" width="3.19" height="3.09" rx="0.19" ry="0.19"/><rect class="cls-5" x="235.3" y="89.4" width="3.19" height="3.09" rx="0.19" ry="0.19"/><rect class="cls-5" x="239.25" y="89.4" width="3.19" height="3.09" rx="0.19" ry="0.19"/><rect class="cls-5" x="243.2" y="89.4" width="3.19" height="3.09" rx="0.19" ry="0.19"/><rect class="cls-5" x="247.15" y="89.4" width="3.19" height="3.09" rx="0.19" ry="0.19"/><rect class="cls-5" x="251.1" y="89.4" width="3.19" height="3.09" rx="0.19" ry="0.19"/><rect class="cls-5" x="255.12" y="89.4" width="8.11" height="3.09" rx="0.19" ry="0.19"/><rect class="cls-5" x="206.6" y="93.29" width="3.19" height="3.45" rx="0.19" ry="0.19"/><rect class="cls-5" x="210.56" y="93.29" width="3.19" height="3.45" rx="0.19" ry="0.19"/><rect class="cls-5" x="214.52" y="93.29" width="3.19" height="3.45" rx="0.19" ry="0.19"/><rect class="cls-5" x="218.48" y="93.29" width="4.25" height="3.45" rx="0.19" ry="0.19"/><rect class="cls-5" x="243.17" y="93.29" width="4.25" height="3.45" rx="0.19" ry="0.19"/><rect class="cls-5" x="223.48" y="93.29" width="18.99" height="3.45" rx="0.19" ry="0.19"/><rect class="cls-5" x="248.13" y="93.29" width="3.19" height="3.45" rx="0.19" ry="0.19"/><rect class="cls-5" x="252.11" y="95.1" width="3.19" height="1.63" rx="0.19" ry="0.19"/><rect class="cls-5" x="256.1" y="93.29" width="3.19" height="3.45" rx="0.19" ry="0.19"/><rect class="cls-5" x="260.04" y="95.1" width="3.19" height="1.63" rx="0.19" ry="0.19"/><path class="cls-11" d="M59.1,86.44h44.05a0,0,0,0,1,0,0v22a1.68,1.68,0,0,1-1.68,1.68H60.78a1.68,1.68,0,0,1-1.68-1.68v-22A0,0,0,0,1,59.1,86.44Z" transform="translate(148.81 175.48) rotate(180)"/><rect class="cls-5" x="61.66" y="88.62" width="38.92" height="25.18" transform="translate(148.81 181.32) rotate(180)"/><path class="cls-8" d="M104.48,98.18v21.26H57.38V93.51a2.45,2.45,0,0,1,2.45-2.45H75.29l5.15,4.67H102A2.46,2.46,0,0,1,104.48,98.18Z" transform="translate(-13.43 -21.1)"/><rect class="cls-5" x="48.23" y="74.88" width="12.2" height="2.8"/><rect class="cls-10" x="48.95" y="75.67" width="6.1" height="0.66"/><path class="cls-12" d="M155.93,35.43c.07-.8.58-9.48-8.33-9.48-12.49,1.43-15.49,14.68-15.49,14.68-.94,4-1.24,7.28-2.24,8.77,4.2-.47,14.2-3.46,14.55-3.59,1.1-.45,2.19-1,3.27-1.51.29-.15.56-.28.82-.39,3.69-2.15,5.59-4.38,6.53-6.15.05-.09.09-.19.14-.29l0-.09h0a8.45,8.45,0,0,0,.69-1.88h0S155.92,35.45,155.93,35.43Z" transform="translate(-13.43 -21.1)"/><path class="cls-18" d="M148.49,27.63a12,12,0,0,1,4.47-.07h0A8.42,8.42,0,0,0,147.61,26c-12.49,1.43-15.49,14.68-15.49,14.68-.14.58-.26,1.13-.37,1.68C133.85,37.41,138.67,29.58,148.49,27.63Z" transform="translate(-13.43 -21.1)"/><path class="cls-12" d="M159.66,23.28l2.87-.75C154,19,149.61,22.77,147.6,26h0c8.91,0,8.4,8.68,8.33,9.48,0,0,0,0,0,.07h0v0a17.22,17.22,0,0,1,7.37,14.53c0,6.33-2.94,12.84-7.37,16.31v4.13a7.17,7.17,0,0,0,3.22,1.44c2.45.5,6.14,1.19,9.4,2.16l.33.11V38.67C168.87,23.78,159.66,23.28,159.66,23.28Z" transform="translate(-13.43 -21.1)"/><path class="cls-21" d="M159.66,23.28l2.87-.75C154,19,149.61,22.77,147.6,26h0c6.63,0,8,4.8,8.3,7.59a4,4,0,0,1,0,1.88h0s0,0,0,.07h0v0a17.22,17.22,0,0,1,7.37,14.53c0,6.33-2.94,12.84-7.37,16.31v4.13a7.17,7.17,0,0,0,3.22,1.44c2.45.5,6.14,1.19,9.4,2.16l.33.11V38.67C168.87,23.78,159.66,23.28,159.66,23.28Z" transform="translate(-13.43 -21.1)"/><path class="cls-5" d="M153.43,61.54a6.4,6.4,0,0,1-4.66,1.71,6.76,6.76,0,0,1-4.72-1.63,10.79,10.79,0,0,0,4.72,1A9.85,9.85,0,0,0,153.43,61.54Z" transform="translate(-13.43 -21.1)"/><g class="cls-22"><path class="cls-23" d="M147,52.22a5.7,5.7,0,1,1-5.67-5.36A5.52,5.52,0,0,1,147,52.22Z" transform="translate(-13.43 -21.1)"/></g><g class="cls-22"><path class="cls-23" d="M162.21,52.28a5.7,5.7,0,1,1-5.67-5.36A5.52,5.52,0,0,1,162.21,52.28Z" transform="translate(-13.43 -21.1)"/></g><path class="cls-9" d="M156.54,46.64a6,6,0,0,0-5,2.6,4.5,4.5,0,0,0-2.73-.72,3.6,3.6,0,0,0-2.19.95,6,6,0,0,0-5.19-2.89,5.63,5.63,0,1,0,5.94,5.64,5.36,5.36,0,0,0-.33-1.84,2.65,2.65,0,0,1,1.84-.92,3.55,3.55,0,0,1,2.2.6,5.1,5.1,0,0,0-.48,2.17,6,6,0,1,0,6-5.59ZM141.33,57.25a5.07,5.07,0,1,1,0-10.11,5.49,5.49,0,0,1,4.8,2.76l0,0,0,0a4.87,4.87,0,0,1,.57,2.27A5.25,5.25,0,0,1,141.33,57.25Zm15.17.06a5.07,5.07,0,1,1,5.43-5A5.25,5.25,0,0,1,156.5,57.31Z" transform="translate(-13.43 -21.1)"/><path class="cls-4" d="M24.44,135.72v11.95l35-.15V135.87Zm33.93,10.93H25.47v-9.91h32.9Z" transform="translate(-13.43 -21.1)"/><path class="cls-4" d="M255.69,146.29H231.56V128h-1v18.28H221.2V128h-1v18.28h-3.8c-2.41,0-2.92.57-2.92,3.08v6.1c0,2.51.51,3.08,2.92,3.08h39.31c2.42,0,2.93-.57,2.93-3.08v-6.1C258.62,146.86,258.11,146.29,255.69,146.29Zm-35.19,9.9a3.77,3.77,0,1,1,3.61-3.77A3.69,3.69,0,0,1,220.5,156.19Zm10.49,0a3.77,3.77,0,1,1,3.61-3.77A3.7,3.7,0,0,1,231,156.19Zm10.5,0a3.77,3.77,0,1,1,3.61-3.77A3.69,3.69,0,0,1,241.49,156.19Zm10.49,0a3.77,3.77,0,1,1,3.61-3.77A3.7,3.7,0,0,1,252,156.19Z" transform="translate(-13.43 -21.1)"/><path class="cls-4" d="M40.6,150l-19.33-.09c.17.32.33.64.51,1h17.8v9.91H28.25c.23.31.48.61.72.92l11.63-.05Z" transform="translate(-13.43 -21.1)"/><path class="cls-4" d="M40.6,122.16l-27-.11c0,.33,0,.65.07,1H39.58v9.91H15.07c.07.33.14.66.22,1l25.31-.11Z" transform="translate(-13.43 -21.1)"/><path class="cls-4" d="M40.6,66l-4.44,0-.92.89h4.34v9.91H26.78c-.23.31-.45.63-.66.94l14.48-.06Z" transform="translate(-13.43 -21.1)"/><path class="cls-4" d="M40.6,94.54l-23.16-.1c-.12.33-.23.65-.34,1H39.58v9.91h-25l-.18,1,26.24-.11Z" transform="translate(-13.43 -21.1)"/><path class="cls-4" d="M276.55,137.29v11.65l34.95.15v-12Zm1,.87h32.91v9.91H277.57Z" transform="translate(-13.43 -21.1)"/><path class="cls-4" d="M295.34,151.43l19.33-.09-.5,1h-17.8v9.91H307.7l-.73.92-11.63,0Z" transform="translate(-13.43 -21.1)"/><path class="cls-4" d="M295.34,123.58l27-.12c0,.33,0,.66-.07,1H296.37v9.91h24.5c-.07.33-.14.66-.22,1l-25.31-.11Z" transform="translate(-13.43 -21.1)"/><path class="cls-4" d="M295.34,67.43l4.44,0,.92.89h-4.33v9.91h12.8l.66.94-14.49-.07Z" transform="translate(-13.43 -21.1)"/><path class="cls-5" d="M88,113.45c-5.09,0-9.23,2.73-9.23,6.09H97.22C97.22,116.18,93.08,113.45,88,113.45Z" transform="translate(-13.43 -21.1)"/><path class="cls-24" d="M80.09,207.55V198H54.75v16.6h.12a10.09,10.09,0,0,0,10,9.08h5.2a10.09,10.09,0,0,0,10-9.08h0v-.08a8.85,8.85,0,0,0,0-.89v-5.2A8.69,8.69,0,0,0,80.09,207.55Z" transform="translate(-13.43 -21.1)"/><path class="cls-17" d="M90.5,180.06a1.22,1.22,0,0,0,.07-.17s-11.64-1.53-18.16,8.81c-.21.32-.41.64-.6,1a42.32,42.32,0,0,0-2.4,4.43,31.79,31.79,0,0,0-1.36,3.26c.17-4.73,1.47-10.71,6.44-14,9.27-6,14.67-6.86,15.77-22.27l-.09,0,0-.25s-16,2.47-20.62,18.68c-.15.5-.29,1-.42,1.48a57,57,0,0,0-1.46,6.79c-.17,1-.28,1.9-.37,2.79-.1-.89-.21-1.81-.37-2.79A59,59,0,0,0,65.5,181c-.13-.49-.27-1-.42-1.48-4.64-16.21-20.62-18.68-20.62-18.68a2.11,2.11,0,0,0,0,.25l-.09,0c1.1,15.41,6.51,16.26,15.78,22.27,5,3.27,6.26,9.25,6.43,14a34,34,0,0,0-1.35-3.26,44.27,44.27,0,0,0-2.4-4.43l-.6-1c-6.53-10.34-18.16-8.81-18.16-8.81l.06.17h-.06c3.9,10.51,7.84,10,15.52,12.3A10.63,10.63,0,0,1,65.77,198h3.11a10.65,10.65,0,0,1,6.17-5.65c7.68-2.3,11.62-1.79,15.52-12.3Z" transform="translate(-13.43 -21.1)"/><path class="cls-25" d="M143.14,109.14H122.36l7.83-18.8S127.74,109.14,143.14,109.14Z" transform="translate(-13.43 -21.1)"/></svg>